PathFileType	4	(X/Y/Z)	Patient4_TMGait_0pt4_02_right_15.trc.trc
DataRate	CameraRate	NumFrames	NumMarkers	Units	OrigDataRate	OrigDataStartFrame	OrigNumFrames
76.502732240437	76.502732240437	6	33	mm	76.502732240437	53	       141
Frame#	Time	Sacral			L.Shoulder			Chest			R.Shoulder			Neck			R.ASIS			L.ASIS			R.Thigh.Superior			R.Thigh.Lateral			R.Thigh.Inferior			R.Patella			L.Thigh.Superior			L.Thigh.Lateral			L.Thigh.Inferior			L.Patella			L.Shank.Superior			L.Shank.Lateral			L.Shank.Inferior			R.Shank.Superior			R.Shank.Lateral			R.Shank.Inferior			R.Heel			R.Midfoot.Superior			R.Midfoot.Lateral			R.Toe			L.Heel			L.Midfoot.Lateral			L.Midfoot.Superior			L.Toe			L.Elbow			L.Wrist			R.Elbow			R.Wrist			
		X1	Y1	Z1	X2	Y2	Z2	X3	Y3	Z3	X4	Y4	Z4	X5	Y5	Z5	X6	Y6	Z6	X7	Y7	Z7	X8	Y8	Z8	X9	Y9	Z9	X10	Y10	Z10	X11	Y11	Z11	X12	Y12	Z12	X13	Y13	Z13	X14	Y14	Z14	X15	Y15	Z15	X16	Y16	Z16	X17	Y17	Z17	X18	Y18	Z18	X19	Y19	Z19	X20	Y20	Z20	X21	Y21	Z21	X22	Y22	Z22	X23	Y23	Z23	X24	Y24	Z24	X25	Y25	Z25	X26	Y26	Z26	X27	Y27	Z27	X28	Y28	Z28	X29	Y29	Z29	X30	Y30	Z30	X31	Y31	Z31	X32	Y32	Z32	X33	Y33	Z33	

53	20.039714285714	850.619860959673	1008.492117715783	527.591414167799	1012.481538900560	1438.346404642147	331.991412453666	1130.455611570398	1372.484294113775	483.124146752540	1062.536863777794	1443.725145037848	664.566041653591	1006.319318974860	1499.691029125257	488.563366397470	1088.727047844180	945.075874638226	621.991094537614	1050.290059571679	971.480595426824	351.809405403973	1115.177199538270	739.115430099915	588.412512202738	1032.800808437926	633.344403434073	655.332034498475	1100.255335785541	578.685174104720	569.446882125095	1095.559426643677	493.555308214061	574.780923387610	1136.451649677302	788.507908287508	375.854924206198	1090.689902113251	660.607498191467	297.425155615402	1196.042140358731	601.091626551758	354.829468798537	1216.951647892807	522.194669249742	345.695378292005	1174.966968509033	448.340328343814	334.852829336211	1061.764404807146	354.983046189996	286.697543410290	1107.796920947520	229.259368698032	333.916750117116	1068.396576685463	404.329854400019	582.894005750137	999.261189415342	300.563241481544	647.344747864925	1036.439415958060	205.935897985876	580.156376214758	901.337548301013	42.223582634634	552.711519111362	1072.774476232965	96.956639841310	585.403927497950	986.005584895724	37.062420135797	626.075438945598	1194.091447824177	44.236623212904	610.005601638071	967.600483528998	86.564069559061	373.837480507173	1033.771197947192	74.734812831261	288.718518045334	1125.106404838524	128.130430207202	308.118361851694	1242.148066036870	64.665665972329	269.182555526199	950.851227881776	1085.412470655204	230.272409820188	993.654718112864	827.567628896111	225.802221356581	1142.931379258385	1110.850601632493	798.311776088928	1370.058433585597	996.058631033338	752.615030337891	
54	20.052785714286	850.269198885480	1009.007788707528	529.292704842983	1011.228332129434	1438.330174501777	332.549074063560	1130.606184987656	1372.121954253322	482.407095563059	1064.824457590483	1443.659739373491	664.550491164021	1006.913463118254	1499.641263648153	489.074173366779	1088.650875880306	944.820534098540	621.649811674157	1048.376237293793	971.502043682025	351.713520357392	1112.997061187494	738.529932585223	588.098821485215	1030.192325752509	633.317625576910	655.730223354348	1096.536132668474	578.180728118954	569.563528213938	1091.247929775565	493.282892904232	575.119106628187	1133.898457067395	788.610089739672	375.703879665230	1088.558500530636	661.064758567172	296.705820953368	1193.424532066846	601.526075965334	355.069428859416	1215.794773000397	524.744496922718	345.382553984760	1177.636331235356	450.744585553523	334.192799627053	1070.617653304862	350.618689297051	285.766878793672	1124.708194301621	227.666135064187	332.738278409448	1063.834555153367	404.120290473706	583.266999616355	994.570457009303	300.473539301553	647.937832233053	1031.408862496881	205.831181269339	580.467060357215	896.034209821424	42.218722277220	552.807892325554	1067.514088673003	96.872852765534	585.463494365038	980.723246177756	37.012457509528	626.158357078124	1188.821917641177	44.137835365261	610.023981972066	993.970312362657	76.188245868034	372.903157128474	1060.636471771016	68.575430048041	287.546002305517	1148.723899457720	127.391108000575	306.708466645668	1269.420578479542	71.168397271025	267.448418718571	942.669152893513	1086.315914439420	232.574662310052	977.912462463175	827.458673346416	229.297557928143	1151.531477418187	1112.946038839516	797.846324688319	1383.843929091143	1011.227877131400	748.796150599277	
55	20.065857142857	849.908929924969	1009.400428556271	530.763038571268	1010.075750022678	1438.242905824342	332.955197746569	1130.752185818769	1371.653372373904	481.588783809118	1067.001833899561	1443.448564768968	664.385348567824	1007.535480675077	1499.476619921708	489.470017430507	1088.582646050009	944.535654183963	621.198784039625	1046.549160662481	971.328703253708	351.487887068811	1110.931430557960	737.930498223460	587.810981233805	1027.697141587375	633.251276472195	656.083967321853	1092.962604012697	577.668830758217	569.676123832251	1087.073111249409	492.980562501055	575.466115315303	1131.120235453397	788.243988005677	375.507474174092	1086.164375404358	661.182376822423	295.808759044693	1190.420888406009	601.472879678223	355.254008994242	1214.137316585762	526.903597570721	345.126140001673	1179.779567047779	452.996397865448	333.607718111597	1079.351531295995	346.595465035909	284.631929641598	1140.968136616558	226.867606628214	331.652914178558	1059.377881392657	403.877636175631	583.632356686776	989.932495030623	300.378094545511	648.506080041090	1026.420171339529	205.711168210316	580.774906041626	890.729057533126	42.213468843102	552.906995761977	1062.251286163314	96.776782367701	585.509362097931	975.441581373740	36.963229162811	626.244948431347	1183.553022680675	44.035578622178	610.044123298749	1019.725155958995	67.553930188158	371.745553739259	1087.017948018680	63.788169470595	286.449365534379	1171.667682915933	127.614814307151	305.580140298406	1295.608588456262	78.332813894913	266.641011557694	934.852623976237	1087.282350681261	234.727343248630	962.885997578853	827.666922427019	232.709639148259	1159.853430590080	1114.930139870911	797.041276939789	1396.531011392451	1026.207371751382	744.973413852402	
56	20.078928571429	849.539017877780	1009.680615422945	531.987124778092	1009.031675032226	1438.105464544035	333.199272977269	1130.883959573594	1371.105409710854	480.678498980065	1069.034300277452	1443.118018474037	664.070579411195	1008.165710330915	1499.223891697925	489.732333132613	1088.529023981732	944.235364139601	620.639348638518	1044.821232246161	970.996773500727	351.122388643218	1108.999214239231	737.325039681382	587.532882967739	1025.318315668525	633.152687803943	656.369528082877	1089.540701268223	577.149402451775	569.759424123406	1083.038236237292	492.647565283394	575.782564240020	1128.201397921742	787.511228373496	375.263694813058	1083.591685504995	661.011270445802	294.787605985363	1187.201654324172	601.038144307280	355.319480009493	1212.119007252942	528.706056687702	344.923001236418	1181.466879645371	455.103836230353	333.097173110794	1087.846792863359	343.036572771747	283.336089200636	1156.327541801375	226.864901652799	330.670480768405	1055.027232460820	403.607252028211	583.958806687624	985.351927159966	300.286233825470	649.018815168121	1021.477406754342	205.579953872711	581.061948419591	885.425522655053	42.209892990713	553.008269312559	1056.987519197701	96.672725116511	585.540487499026	970.162141480957	36.917654475690	626.334964432252	1178.285739116054	43.933251930549	610.066171329284	1044.347723089019	60.783805195440	370.391840251439	1112.435801458903	60.380915409313	285.467755006557	1193.576312423087	128.720056934527	304.746622740188	1320.343727745769	85.892068040007	266.799642787045	927.447029294653	1088.311436994606	236.711928983410	948.647991203543	828.161360315094	236.008969957596	1167.897264920644	1116.811065154213	795.881758656986	1408.137951781072	1040.841132094012	741.182683430831	
57	20.092000000000	849.169836858192	1009.862252899203	532.953844772128	1008.096420793770	1437.939907866162	333.274522760991	1130.993097349763	1370.510577457867	479.684121364500	1070.893733758412	1442.701604120837	663.607029144562	1008.779838070825	1498.913627324405	489.841003423330	1088.498138157302	943.933899046688	619.969899647513	1043.210130616659	970.550895666274	350.607028893797	1107.206503306558	736.721517025368	587.242324651618	1023.045703953146	633.032475087707	656.563287494676	1086.264328490196	576.622888420804	569.791722899643	1079.137298139105	492.284220959263	576.035123992165	1125.249331655444	786.527752128168	374.955008954545	1080.923137846598	660.599815816883	293.707838009374	1183.940063540553	600.328622047041	355.205254169566	1209.885934577726	530.183248425602	344.758173108306	1182.769882424862	457.059065239131	332.646697507863	1095.944727443790	340.011460617750	281.949401787998	1170.547173591692	227.575897217295	329.788028954111	1050.774145098137	403.317532780733	584.221400152970	980.824821964762	300.207976542848	649.450104016172	1016.579743170378	205.443526481853	581.314945559651	880.125573858187	42.210983864659	553.110498338675	1051.724314962631	96.566914230837	585.559596621755	964.885763862867	36.878085445763	626.427690234499	1173.020086341020	43.834069696920	610.090031645428	1067.340858529754	55.852137062478	368.908281254170	1136.389128488340	58.245153801363	284.635826215244	1214.087244686099	130.535047708935	304.185068853212	1343.268343625910	93.510263235017	267.835046306343	920.488020136012	1089.402573140414	238.506376052026	935.263302241711	828.908885250765	239.159113390461	1175.645827645244	1118.606342243412	794.362106146818	1418.690297416757	1054.995152663903	737.449891306278	
58	20.105071428571	848.820576735150	1009.959263219654	533.655159625672	1007.262480263248	1437.766029306221	333.178041363168	1131.072825819304	1369.902515972922	478.611061014262	1072.559376301537	1442.234275284784	662.996514988229	1009.351797413428	1498.574452703389	489.779423571602	1088.499485487978	943.644287636850	619.188444309061	1041.739602462674	970.035201647589	349.934517092565	1105.546764974376	736.127012185885	586.913883449869	1020.858797276194	632.903043764462	656.645320789117	1083.118297967414	576.090236361564	569.757854333899	1075.356802024813	491.892121770550	576.200915812059	1122.391017444914	785.411216838541	374.551130846340	1078.240894023581	659.987927092039	292.638453947519	1180.802490210810	599.441614243299	354.862551301758	1207.588299970618	531.361263652396	344.602674452403	1183.759147399587	458.835765515362	332.231214530932	1103.460466522907	337.533128994370	280.561210096644	1183.403362546724	228.844638100649	328.996553006872	1046.604070333284	403.018513126209	584.404460918629	976.340611982035	300.152841891923	649.782206460077	1011.722334445400	205.308750214186	581.526335163827	874.829770428240	42.220124505201	553.212153342689	1046.463236629464	96.466742543154	585.572635647142	959.612603162270	36.846192640846	626.521929878481	1167.755165694157	43.740788184446	610.115422779271	1088.246023269643	52.602009445769	367.400624952685	1158.370234184011	57.177576800344	283.984433095154	1232.842110966344	132.816259424467	303.845325597523	1364.032181003014	100.806533172290	269.538851671682	914.001276924693	1090.551485661212	240.085923983986	922.790303875841	829.871747345516	242.118659902979	1183.066274840666	1120.336814045389	792.489384278552	1428.218449077202	1068.557582111110	733.792645403141	
